PathFileType	4	(X/Y/Z)	D:/83_35.trc
DataRate	CameraRate	NumFrames	NumMarkers	Units	OrigDataRate	OrigDataStartFrame	OrigNumFrames
120.00	120.00	8	41	mm	120.00	492	1048
Frame#	Time	LFWT			RFWT			LBWT			RBWT			LTHI			LKNE			LSHN			LANK			LHEE			LMT5			LTOE			RTHI			RKNE			RSHN			RANK			RHEE			RMT5			RTOE			CLAV			STRN			C7			T10			RBAC			LFHD			RFHD			LBHD			RBHD			LSHO			LUPA			LELB			LFRM			LWRA			LWRB			LFIN			RSHO			RUPA			RELB			RFRM			RWRA			RWRB			RFIN
		X1	Y1	Z1	X2	Y2	Z2	X3	Y3	Z3	X4	Y4	Z4	X5	Y5	Z5	X6	Y6	Z6	X7	Y7	Z7	X8	Y8	Z8	X9	Y9	Z9	X10	Y10	Z10	X11	Y11	Z11	X12	Y12	Z12	X13	Y13	Z13	X14	Y14	Z14	X15	Y15	Z15	X16	Y16	Z16	X17	Y17	Z17	X18	Y18	Z18	X19	Y19	Z19	X20	Y20	Z20	X21	Y21	Z21	X22	Y22	Z22	X23	Y23	Z23	X24	Y24	Z24	X25	Y25	Z25	X26	Y26	Z26	X27	Y27	Z27	X28	Y28	Z28	X29	Y29	Z29	X30	Y30	Z30	X31	Y31	Z31	X32	Y32	Z32	X33	Y33	Z33	X34	Y34	Z34	X35	Y35	Z35	X36	Y36	Z36	X37	Y37	Z37	X38	Y38	Z38	X39	Y39	Z39	X40	Y40	Z40	X41	Y41	Z41

394	3.275	748.62250	396.73642	866.97528	757.63623	661.97046	858.51184	919.65143	434.47003	928.52588	923.78729	574.64105	935.60803	721.59741	351.10852	583.11255	667.77106	390.58325	443.87747	628.97357	382.35687	211.38638	614.75891	410.13174	79.13401	664.48792	456.51526	51.24055	506.00903	392.43143	49.56787	476.84433	474.33432	86.43324	851.03894	679.11426	647.25525	877.87964	637.70245	423.28253	938.21075	655.98267	320.26062	1031.89075	584.16003	66.47554	1104.24109	536.61481	36.47280	935.60315	617.91809	27.83063	894.83533	539.91284	46.35904	738.37915	487.12457	1278.87048	736.38348	495.40665	1101.69336	853.93030	487.43570	1374.51794	947.60199	504.79752	1166.01794	930.38147	579.04602	1258.53198	614.82684	405.46951	1477.70557	627.45404	565.93304	1481.94397	767.82556	424.46848	1489.87805	777.99237	534.11737	1496.08350	822.81232	346.07867	1353.74048	902.66846	272.84741	1146.79211	936.71570	270.93802	1052.95374	955.16290	258.77722	885.82086	837.03839	268.16168	778.18433	975.51563	216.67601	782.32501	893.10193	231.68680	716.08453	808.57025	639.68091	1355.93372	837.74329	720.63892	1247.38550	889.37927	751.97742	1053.99036	880.14154	750.96417	977.27222	662.05182	775.28174	858.71729	781.34515	829.00311	798.32330	740.58167	817.09607	775.34564
395	3.283	741.13977	396.18408	866.40625	750.02362	661.26935	857.52557	912.44452	433.90762	927.81000	916.05048	574.17389	934.79340	714.64746	352.05536	582.21448	662.17139	390.91809	443.05457	626.57745	383.49203	209.68782	613.60156	410.93317	77.94415	663.45081	457.85565	51.03055	506.01917	392.24408	45.89240	474.77740	474.12534	81.25050	844.61530	678.47791	646.51483	872.16046	637.09088	422.76849	933.94000	655.34442	320.44073	1031.39697	584.58685	68.07845	1104.29602	536.57965	38.39944	935.61511	617.87817	28.00811	894.37756	539.80212	45.84530	731.88843	486.17624	1278.35962	734.93262	494.73560	1099.72485	847.60907	486.26938	1374.08191	940.75269	504.31812	1165.18164	923.54779	578.32648	1257.62549	608.51953	404.49969	1477.54834	621.37537	564.99127	1482.07361	761.65656	423.36276	1489.29419	771.61078	532.98792	1495.66589	816.74304	345.01260	1353.32178	895.75446	272.24039	1145.45801	930.07959	270.30783	1051.91589	948.78864	258.21301	884.75964	831.14111	267.41776	776.76947	969.49860	216.05295	781.54297	887.14508	231.05855	714.74713	801.99036	638.80286	1355.49097	831.47168	719.74390	1247.11487	882.87512	751.06201	1053.69202	873.62280	750.22284	976.96674	655.53101	775.76434	859.01416	774.19208	828.79700	798.07184	733.66943	817.20776	775.31360
396	3.292	733.73737	395.54486	866.29327	742.21393	660.77234	856.69440	905.29449	433.49442	927.44531	907.98016	573.66852	934.24512	708.34088	352.42233	581.64600	656.13330	391.07690	442.73801	623.61273	384.11783	208.94348	611.32043	411.54050	77.01476	661.96350	458.69473	51.45444	505.88889	391.96881	43.43862	471.95529	474.09177	76.73389	837.72455	677.67810	645.74182	865.92566	636.13739	422.01035	929.31689	654.75507	320.79141	1031.29504	584.71460	70.26712	1104.10217	537.01074	41.04122	935.74829	617.76471	28.48193	893.98883	539.40387	45.70214	725.23877	485.36752	1278.35864	726.33813	493.85495	1100.24719	841.35541	485.37048	1374.06738	933.77515	503.72342	1164.36694	916.90747	577.40741	1257.17407	602.45966	402.84250	1477.14709	614.47809	563.32202	1481.75305	755.35474	422.25894	1489.27026	765.46191	531.95782	1495.77966	810.56592	343.92422	1352.82166	889.10437	271.53522	1144.65161	923.17407	269.82465	1050.68677	942.25116	257.75470	883.80475	824.95026	266.71915	775.34552	963.23804	215.47530	780.76038	881.26721	230.36714	713.81000	795.59351	637.84680	1355.35889	825.05804	718.88983	1246.99634	876.33209	750.06989	1053.45544	867.22272	749.27826	976.67133	648.85706	775.91449	859.05609	767.30823	828.63464	797.75305	727.09045	817.23590	775.18500
397	3.300	726.00079	395.09448	866.50470	734.68652	660.47589	856.06415	897.69531	433.10861	927.20441	900.53247	573.08081	934.01575	702.24982	352.45013	581.48236	650.26483	391.22141	442.58551	619.90338	384.31000	208.58699	608.67023	411.83115	76.32912	660.41895	458.71771	52.19810	504.50708	391.66779	42.19660	469.45801	474.30124	73.84747	830.59833	676.67383	645.25098	859.60583	635.15808	421.47202	924.39374	654.22632	321.47607	1030.93555	584.64410	72.68147	1103.50342	537.39856	44.06650	935.76056	617.35559	28.74906	893.65057	539.23907	45.84116	718.79340	484.47556	1278.86865	717.43280	493.26099	1100.62622	835.13330	484.34821	1374.05298	927.04193	502.91888	1164.04810	910.43018	576.36591	1256.98779	595.84644	402.55170	1477.04004	608.32043	563.07184	1481.79846	748.86121	421.27176	1489.58643	759.46124	530.92456	1496.23401	804.22260	342.88196	1352.42761	882.34784	270.79541	1144.00195	915.72485	269.14340	1049.55884	935.48053	257.29031	883.11884	818.30066	266.14517	773.94867	956.88153	214.94331	780.17181	875.38593	229.26773	713.19397	789.46765	636.78900	1355.42493	818.67725	717.95337	1246.84717	869.77319	749.07288	1053.05505	860.79486	748.24866	976.38843	642.19226	775.81726	859.08386	761.20892	828.14771	797.99268	720.80408	816.68170	775.66400
398	3.308	718.15942	394.81879	866.80475	727.84375	660.24591	855.48706	889.92743	432.57281	927.13452	893.57928	572.48309	933.85229	695.79834	352.60947	581.77667	644.74298	391.12866	442.74048	615.63171	384.34119	208.13107	606.20233	411.93524	75.92030	658.64111	458.33844	53.04434	502.15182	391.97229	41.54529	467.34985	474.86002	72.09321	823.78345	675.97791	644.86328	853.10425	634.37347	421.23535	918.98529	653.69061	322.13910	1030.48401	585.02490	75.67736	1102.53625	537.67877	47.45531	935.39368	616.80951	28.62457	893.31714	539.33392	45.90362	712.47284	483.54984	1279.29053	710.03668	492.69449	1100.78748	828.66125	483.10123	1374.19922	920.38428	502.11676	1164.24902	903.97607	575.30707	1256.85059	589.39435	401.46017	1477.51904	601.94434	561.85162	1482.38843	742.26996	420.17636	1489.94641	753.18079	529.85370	1496.70459	797.87726	341.64539	1352.22937	875.23334	269.85452	1143.33679	908.28827	268.45947	1048.81079	928.71753	256.77234	882.60675	811.79016	265.47290	772.75397	950.61151	214.55472	779.68445	869.14233	228.15033	712.60840	783.13385	635.72675	1355.56824	812.52295	716.94965	1246.76282	863.57843	747.69092	1053.04028	854.32867	747.11017	976.37390	636.28455	775.97229	859.26019	756.64777	827.13763	798.82123	715.37646	815.93494	776.43323
399	3.317	710.61298	394.54749	867.17542	721.23981	659.83185	855.15363	882.46942	431.95248	927.64996	886.39343	571.93964	933.92596	689.62079	352.43036	582.44733	638.66174	390.73135	443.10068	611.46985	384.04880	207.75603	604.04126	411.82101	75.61002	656.99646	457.69922	53.81305	499.83481	392.75958	41.04634	465.44977	475.92618	70.02155	816.70599	675.51935	644.49744	846.40698	633.94556	421.20874	913.22491	653.15631	322.68430	1030.04529	585.96765	79.31633	1101.67908	538.09119	51.62168	935.03021	616.44550	28.91427	892.91119	539.41608	45.81582	705.98889	482.56497	1279.57373	703.01050	492.15823	1101.41736	822.16101	481.86749	1374.72461	913.52362	501.21558	1164.49426	897.49792	574.17035	1256.91821	582.90485	400.29602	1478.45898	595.80292	560.52185	1483.18579	735.66925	418.89478	1490.54480	746.84314	528.64453	1497.19299	791.71643	340.47372	1352.26831	867.85284	269.07315	1142.80884	901.02045	267.92499	1048.36426	921.80481	256.21072	882.04578	805.39142	264.50449	772.16138	944.23401	214.20367	779.41156	862.79803	227.64960	712.13190	777.03088	634.57983	1356.12415	806.37408	715.82452	1247.17224	857.49524	746.11847	1053.38379	848.12158	745.84241	976.69635	631.08099	776.12750	859.30249	752.54816	825.74030	799.17938	710.86676	815.44702	776.77551
400	3.325	703.14294	394.29053	867.89240	714.02234	659.14429	855.10602	875.33557	431.63269	928.60345	878.71558	571.61145	934.26831	683.58911	352.11258	583.31268	632.94055	390.29895	443.51242	607.63672	383.29254	207.74361	602.35815	411.53378	75.42525	655.86005	456.93661	54.34492	497.74216	392.99570	40.35394	464.22238	477.16467	67.55701	809.06940	674.95129	644.23682	838.95642	633.36450	421.08401	907.11902	652.65710	323.43329	1028.64429	586.14233	82.34934	1100.95325	538.12201	56.09406	934.86719	616.19861	29.62322	892.42151	539.42468	45.57500	699.33881	481.56909	1280.12256	695.36646	491.47949	1102.44983	815.98181	480.56982	1375.35901	906.51593	500.13815	1164.76611	890.92969	572.88141	1257.32568	575.77148	400.99420	1479.54797	590.79901	561.26422	1484.19482	729.11774	417.70248	1491.35803	740.58057	527.31781	1497.81165	785.22186	339.49991	1352.65442	860.90088	268.36661	1142.69934	893.42859	267.14136	1048.26343	914.75470	255.66087	881.87836	798.76593	263.42932	772.03864	937.83435	213.69290	779.49664	856.26776	227.28671	711.63263	771.17261	633.40314	1357.01489	800.28387	714.64404	1247.94189	851.21906	744.61395	1054.03589	842.26538	744.36584	977.47888	626.19629	776.21362	859.07599	747.31201	824.66779	798.66461	706.53613	814.80682	776.70630
401	3.333	695.81299	394.08475	869.33209	706.61151	658.56934	855.13000	868.43097	431.53870	929.75189	870.84509	571.53210	934.64874	677.04431	351.81772	584.12183	627.43701	390.15881	444.01447	603.76044	382.62912	207.85162	601.04681	411.13504	75.33302	655.07770	456.26495	54.50246	496.82306	392.56970	39.52127	463.74573	477.64969	65.43742	801.10748	674.20422	644.06415	830.48834	632.51324	421.00473	900.92181	652.15381	324.68314	1026.37183	585.92108	85.25194	1099.77002	537.82166	61.21282	934.67059	615.90674	30.26408	892.04932	539.46661	45.01726	692.56158	480.59210	1281.11072	688.59521	490.64105	1103.39124	809.67975	479.57263	1375.88025	899.68005	499.01999	1165.22412	884.29572	571.66956	1258.05005	568.92200	400.84924	1480.13293	585.57458	560.76111	1485.11121	722.23718	416.64737	1492.06274	734.20648	526.03662	1498.68274	778.47327	338.44205	1353.19910	853.89850	267.55405	1142.75635	885.84552	266.17047	1048.40442	907.68292	255.18259	882.15472	791.94958	262.58365	772.03741	931.35461	213.10809	779.77374	849.76764	226.62849	711.33533	765.05652	632.36017	1358.02136	794.48230	713.34814	1248.81421	845.15674	743.18427	1055.15137	836.60718	742.77319	978.69196	621.35742	776.52466	858.77887	742.09302	824.29211	798.57788	702.13251	814.01642	776.41418
